<?xml version="1.0" encoding="UTF-8"?> <!-- Generator: Adobe Illustrator 24.0.1, SVG Export Plug-In . SVG Version: 6.00 Build 0) --> <svg xmlns="http://www.w3.org/2000/svg" xmlns:xlink="http://www.w3.org/1999/xlink" id="Camada_1" x="0px" y="0px" viewBox="0 0 1399 350" style="enable-background:new 0 0 1399 350;" xml:space="preserve"> <style type="text/css"> .st0{fill:#5B6670;} .st1{fill:#36B0C9;} .st2{fill:#16182F;} .st3{fill:#F900A7;} .st4{fill:#FF239E;} </style> <g> <g> <g> <path class="st0" d="M373.4,207.5c-27.1,0-49.6-21-49.6-51s22.2-51,49.9-51c11.3,0,26.5,3.5,37.7,17.9l-4.9,3.9 c-9.6-12.6-23.2-15.4-32.7-15.4c-24,0-43.4,17.9-43.4,44.6c0,26.5,20,44.7,43.6,44.7c19.8,0,37.2-12.4,39-37.4h-31.6v-6h38 C420.4,188.8,399.1,207.5,373.4,207.5z"></path> <path class="st0" d="M494,206.1l-25.3-37c-0.8,0.1-1.8,0.1-2.7,0.1h-23.2v36.9h-6.6v-99.2h29.8c20.8,0,32.8,13.5,32.8,31.1 c0,15.2-8.4,26.8-23.5,30.2l26.1,37.9H494z M492.1,138.1c0-15.9-10.2-24.9-26.8-24.9h-22.3V163h22.3 C481.9,163,492.1,153.9,492.1,138.1z"></path> <path class="st0" d="M515.8,171.8v-64.8h6.6v64.7c0,19,11.6,29.5,27.5,29.5c15.8,0,27.5-10.5,27.5-29.5v-64.7h6.6v64.8 c0,22.9-14.8,35.8-34.1,35.8C530.5,207.5,515.8,194.7,515.8,171.8z"></path> <path class="st0" d="M665.6,138.1c0,18.2-12,31.4-33.2,31.4h-23.5v36.6h-6.6v-99.2h30C653.6,106.9,665.6,120.5,665.6,138.1z M658.7,138.1c0-15.9-10.2-24.9-26.8-24.9h-23v50h23C648.5,163.2,658.7,153.9,658.7,138.1z"></path> <path class="st0" d="M679,156.5c0-30.6,23.6-51,49.7-51c26.3,0,49.9,20.4,49.9,51s-23.6,51-49.9,51 C702.6,207.5,679,187.1,679,156.5z M771.9,156.5c0-27.1-20.7-44.6-43.2-44.6c-22.3,0-43.2,17.5-43.2,44.6 c0,27.1,20.8,44.6,43.2,44.6C751.2,201.1,771.9,183.6,771.9,156.5z"></path> </g> <g> <path class="st1" d="M823.3,168.1v-61.2h24.6v61.3c0,14,8.7,16.2,14.4,16.2c5.6,0,14.2-2.2,14.2-16.2v-61.3h24.6v61.2 c0,25.7-17.5,39.4-38.8,39.4C840.7,207.5,823.3,193.8,823.3,168.1z"></path> <path class="st1" d="M913.4,106.9H938l38,58.9h0.7v-58.9h24.6v99.2h-24.6l-38-58.9H938v58.9h-24.6V106.9z"></path> <path class="st1" d="M1013.4,106.9h24.6v99.2h-24.6V106.9z"></path> <path class="st1" d="M1048.9,156.5c0-31.1,23.7-51,51.8-51c14.5,0,31,5.3,41.2,23l-17.7,12.2c-5.2-7.7-13.1-11.9-22.9-11.9 c-14.8,0-27.1,10.3-27.1,27.7c0,17.6,12.6,27.7,27.4,27.7c10.1,0,17.5-4.2,22.6-12l17.7,12.3c-10.2,17.7-26.8,23-41.3,23 C1072.5,207.5,1048.9,187.7,1048.9,156.5z"></path> <path class="st1" d="M1212.9,192h-38.3l-4.9,14.1H1143l37.4-99.2h26.4l37.4,99.2h-26.5L1212.9,192z M1204.9,169.5l-11.3-32.4 l-11.2,32.4H1204.9z"></path> <path class="st1" d="M1251,106.9h40.6c26,0,47.4,20.7,47.4,49.6s-21.4,49.6-47.4,49.6H1251V106.9z M1290.8,182.9 c15.1,0,22.5-11,22.5-26.4s-7.4-26.4-22.5-26.4h-15.2v52.8H1290.8z"></path> </g> <g> <path class="st0" d="M323.8,232.7h3v34.6h-3V232.7z"></path> <path class="st0" d="M332.9,232.7h3.1l21,29.5h0.2v-29.5h3v34.6h-3.1l-21-29.5h-0.2v29.5h-3V232.7z"></path> <path class="st0" d="M369.5,235.4v13.2h13.7v2.6h-13.7v16.1h-3v-34.6h18.2v2.7H369.5z"></path> <path class="st0" d="M388.6,250c0-10.7,8.2-17.8,17.4-17.8c9.3,0,17.4,7.1,17.4,17.8c0,10.7-8.2,17.8-17.4,17.8 C396.8,267.8,388.6,260.6,388.6,250z M420.4,250c0-9-6.9-14.9-14.4-14.9s-14.4,5.8-14.4,14.9s6.9,14.9,14.4,14.9 S420.4,259,420.4,250z"></path> <path class="st0" d="M449.1,267.3l-8.5-12.6h-0.7h-7.7v12.6h-3v-34.6h10.7c7.3,0,11.5,4.7,11.5,11c0,5.2-2.8,9.2-7.8,10.5 l8.9,13.1H449.1z M432.1,251.9h7.3c5.5,0,8.8-2.9,8.8-8.2c0-5.3-3.4-8.1-8.8-8.1h-7.3V251.9z"></path> <path class="st0" d="M457.6,232.7h3.4l14.4,30.6l14.4-30.6h3.4v34.6h-3v-28.4H490l-13.4,28.4h-2.3l-13.4-28.4h-0.2v28.4h-3V232.7 z"></path> <path class="st0" d="M521.4,258.5h-17.1l-3.5,8.8h-3.3l13.9-34.6h2.9l13.9,34.6h-3.3L521.4,258.5z M520.2,255.6l-7.5-18.9 l-7.5,18.9H520.2z"></path> <path class="st0" d="M557.5,259.6l2.2,1.7c-3.5,4.7-8.3,6.2-12.2,6.4l-1.2,1.7c2.3,0,4.2,1.5,4.2,3.9c0,3.4-3.5,4.8-7,4.2v-1.7 c2.4,0.1,4.3-0.3,4.3-2.4c0-1.6-1.2-2.5-3.8-2.1l-0.8-1.1l1.7-2.5c-9-0.7-16-7.7-16-17.7c0-10.5,7.8-17.8,17.5-17.8 c4,0,9.5,1.3,13.3,6.4l-2.2,1.7c-3.2-4.2-7.6-5.2-11-5.2c-8,0-14.5,5.9-14.5,14.9c0,8.9,6.5,14.9,14.6,14.9 C549.9,264.8,554.3,263.8,557.5,259.6z"></path> <path class="st0" d="M585.8,258.5h-17.1l-3.5,8.8h-3.3l13.9-34.6h2.9l13.9,34.6h-3.3L585.8,258.5z M572.2,227.9h-2.4 c0-3,1.9-4.6,4.3-4.6c3.4,0,3.8,3.2,6.3,3.2c1.4,0,2.1-1,2.1-2.2h2.4c0,3.1-1.9,4.6-4.3,4.6c-3.4,0-3.8-3.2-6.3-3.2 C572.9,225.7,572.2,226.6,572.2,227.9z M584.7,255.6l-7.5-18.9l-7.5,18.9H584.7z"></path> <path class="st0" d="M593.4,250c0-10.7,8.2-17.8,17.4-17.8c9.3,0,17.4,7.1,17.4,17.8c0,10.7-8.2,17.8-17.4,17.8 C601.6,267.8,593.4,260.6,593.4,250z M625.2,250c0-9-6.9-14.9-14.4-14.9c-7.5,0-14.4,5.8-14.4,14.9s6.9,14.9,14.4,14.9 C618.3,264.8,625.2,259,625.2,250z"></path> <path class="st0" d="M663,264.4v2.9h-18.5v-34.6h18.1v2.9h-15.1v13h12.9v2.8h-12.9v13.1H663z M656.3,229.5h-2.7l3-7.5h2.9 L656.3,229.5z"></path> <path class="st0" d="M678.6,250c0-10.7,8.2-17.8,17.4-17.8c9.3,0,17.4,7.1,17.4,17.8c0,10.7-8.2,17.8-17.4,17.8 C686.8,267.8,678.6,260.6,678.6,250z M710.4,250c0-9-6.9-14.9-14.4-14.9s-14.4,5.8-14.4,14.9s6.9,14.9,14.4,14.9 S710.4,259,710.4,250z"></path> <path class="st0" d="M729.7,232.7h3.1l21,29.5h0.2v-29.5h3v34.6H754l-21-29.5h-0.2v29.5h-3V232.7z"></path> <path class="st0" d="M762.7,250c0-10.7,8.2-17.8,17.4-17.8c9.3,0,17.4,7.1,17.4,17.8c0,10.7-8.2,17.8-17.4,17.8 C771,267.8,762.7,260.6,762.7,250z M794.5,250c0-9-6.9-14.9-14.4-14.9c-7.5,0-14.4,5.8-14.4,14.9s6.9,14.9,14.4,14.9 C787.7,264.8,794.5,259,794.5,250z"></path> <path class="st0" d="M800.6,259.4l2.5-1.1c1,4,4.4,6.6,8.8,6.6c4.1,0,7.6-2.3,7.6-6.6c0-4.1-3-5.8-7.3-7.5l-2.3-0.9 c-5.2-2-7.9-5-7.9-9.1c0-5.1,4.1-8.5,9.5-8.5c5.6,0,8.9,3.4,10.1,7.2l-2.4,1.2c-1.3-3.3-3.8-5.5-7.6-5.5c-3.8,0-6.6,2.1-6.6,5.7 c0,2.8,1.7,4.9,5.9,6.6l2.3,0.9c5.5,2.2,9.3,4.6,9.3,10.1c0,6.1-5,9.5-10.7,9.5C806.1,267.8,801.7,264.3,800.6,259.4z"></path> <path class="st0" d="M826.3,259.4l2.5-1.1c1,4,4.4,6.6,8.8,6.6c4.1,0,7.6-2.3,7.6-6.6c0-4.1-3-5.8-7.3-7.5l-2.3-0.9 c-5.2-2-7.9-5-7.9-9.1c0-5.1,4.1-8.5,9.5-8.5c5.6,0,8.9,3.4,10.1,7.2l-2.4,1.2c-1.3-3.3-3.8-5.5-7.6-5.5c-3.8,0-6.6,2.1-6.6,5.7 c0,2.8,1.7,4.9,5.9,6.6l2.3,0.9c5.5,2.2,9.3,4.6,9.3,10.1c0,6.1-5,9.5-10.7,9.5C831.9,267.8,827.5,264.3,826.3,259.4z"></path> <path class="st0" d="M852.6,250c0-10.7,8.2-17.8,17.4-17.8c9.3,0,17.4,7.1,17.4,17.8c0,10.7-8.2,17.8-17.4,17.8 C860.8,267.8,852.6,260.6,852.6,250z M884.4,250c0-9-6.9-14.9-14.4-14.9c-7.5,0-14.4,5.8-14.4,14.9s6.9,14.9,14.4,14.9 C877.5,264.8,884.4,259,884.4,250z"></path> <path class="st0" d="M903.7,232.7h3.4l14.4,30.6l14.4-30.6h3.4v34.6h-3v-28.4h-0.2l-13.4,28.4h-2.3L907,238.9h-0.2v28.4h-3V232.7 z"></path> <path class="st0" d="M967.5,258.5h-17.1l-3.5,8.8h-3.3l13.9-34.6h2.9l13.9,34.6H971L967.5,258.5z M966.4,255.6l-7.5-18.9 l-7.5,18.9H966.4z"></path> <path class="st0" d="M978.4,232.7h3v34.6h-3V232.7z"></path> <path class="st0" d="M987.1,250c0-10.7,8.2-17.8,17.4-17.8c9.3,0,17.4,7.1,17.4,17.8c0,10.7-8.2,17.8-17.4,17.8 C995.3,267.8,987.1,260.6,987.1,250z M1018.9,250c0-9-6.9-14.9-14.4-14.9c-7.5,0-14.4,5.8-14.4,14.9s6.9,14.9,14.4,14.9 C1012,264.8,1018.9,259,1018.9,250z"></path> <path class="st0" d="M1047.6,267.3l-8.5-12.6h-0.7h-7.7v12.6h-3v-34.6h10.7c7.3,0,11.5,4.7,11.5,11c0,5.2-2.8,9.2-7.8,10.5 l8.9,13.1H1047.6z M1030.6,251.9h7.3c5.5,0,8.8-2.9,8.8-8.2c0-5.3-3.4-8.1-8.8-8.1h-7.3V251.9z"></path> <path class="st0" d="M1089.2,243.7c0,6.4-4.3,11.1-11.7,11.1h-7.8v12.5h-3v-34.6h10.8C1084.9,232.7,1089.2,237.4,1089.2,243.7z M1086.1,243.7c0-5.3-3.4-8.1-8.8-8.1h-7.5v16.4h7.5C1082.8,251.9,1086.1,249,1086.1,243.7z"></path> <path class="st0" d="M1111,258.5h-17.1l-3.5,8.8h-3.3l13.9-34.6h2.9l13.9,34.6h-3.3L1111,258.5z M1109.9,255.6l-7.5-18.9 l-7.5,18.9H1109.9z"></path> <path class="st0" d="M1137.5,235.6h-9.5v31.7h-3v-31.7h-9.5v-2.9h22.1V235.6z"></path> <path class="st0" d="M1162.4,267.3l-8.5-12.6h-0.7h-7.7v12.6h-3v-34.6h10.7c7.3,0,11.5,4.7,11.5,11c0,5.2-2.8,9.2-7.8,10.5 l8.9,13.1H1162.4z M1145.4,251.9h7.3c5.5,0,8.8-2.9,8.8-8.2c0-5.3-3.4-8.1-8.8-8.1h-7.3V251.9z"></path> <path class="st0" d="M1170.4,232.7h3v34.6h-3V232.7z"></path> <path class="st0" d="M1179.6,232.7h3.4l14.4,30.6l14.4-30.6h3.4v34.6h-3v-28.4h-0.2l-13.4,28.4h-2.3l-13.4-28.4h-0.2v28.4h-3 V232.7z"></path> <path class="st0" d="M1220.9,250c0-10.7,8.2-17.8,17.4-17.8c9.3,0,17.4,7.1,17.4,17.8c0,10.7-8.2,17.8-17.4,17.8 C1229.1,267.8,1220.9,260.6,1220.9,250z M1252.7,250c0-9-6.9-14.9-14.4-14.9c-7.5,0-14.4,5.8-14.4,14.9s6.9,14.9,14.4,14.9 C1245.8,264.8,1252.7,259,1252.7,250z M1232.2,227.9l5-5.9h2.1l5.1,5.9l-1.7,1.5l-4.4-5.1l-4.4,5.1L1232.2,227.9z"></path> <path class="st0" d="M1261.4,232.7h3.1l21,29.5h0.2v-29.5h3v34.6h-3.1l-21-29.5h-0.2v29.5h-3V232.7z"></path> <path class="st0" d="M1294.9,232.7h3v34.6h-3V232.7z"></path> <path class="st0" d="M1303.6,250c0-10.7,8.2-17.8,17.4-17.8c9.3,0,17.4,7.1,17.4,17.8c0,10.7-8.2,17.8-17.4,17.8 C1311.8,267.8,1303.6,260.6,1303.6,250z M1335.4,250c0-9-6.9-14.9-14.4-14.9c-7.5,0-14.4,5.8-14.4,14.9s6.9,14.9,14.4,14.9 C1328.5,264.8,1335.4,259,1335.4,250z"></path> </g> </g> <g> <path class="st2" d="M134,292.2C134,292.2,134,292.2,134,292.2L134,292.2C134,292.2,134,292.2,134,292.2z"></path> <path class="st2" d="M140.7,235.8c0.4-0.1,0.7-0.2,1.1-0.3c-2,0.5-4,1.2-6,1.9C137.4,236.8,139.1,236.2,140.7,235.8z"></path> <path class="st2" d="M149.9,234c-0.3,0-0.5,0.1-0.8,0.1c0.1,0,0.2,0,0.4-0.1C149.6,234,149.8,234,149.9,234z"></path> <path class="st2" d="M152.6,201.7c-3.5,3-7.8,5.6-12.5,7.3c-3.3,1.2-7.7-0.6-9.5-2.2s-2.7-3-2.7-3c7.7,0.4,16.6-2,23.4-7 C151.7,198.5,152.1,200.1,152.6,201.7z"></path> <g> <path class="st2" d="M196.9,140.3c-0.4-0.8-0.3-0.7-1.4-2.8C195.7,137.8,196.2,138.9,196.9,140.3z"></path> <path class="st2" d="M194.1,187.8c0-0.4,0-0.7,0-1.1c0-9.4-2.4-18-6.5-24.8v0c-0.9-1.4-1.4-3.1-1.4-4.9c0-3.9,2.5-7.2,6-8.4 c0.7-0.2,1.4-0.4,2.1-0.5c1.9,5.3,3.1,11.3,3.3,17.5c0,0.7,0,1.3,0,2C197.6,174.9,196.3,181.7,194.1,187.8z"></path> <path class="st3" d="M196.9,140.3c-0.3-0.8-0.7-1.3-1.9-3.8c0.2,0.3,0.4,0.7,0.6,1v0C195.7,137.8,196.2,138.9,196.9,140.3z"></path> <path class="st3" d="M201.6,165.5c0,0.4,0,1.5-0.1,1.7C201.6,166.6,201.6,166.1,201.6,165.5z"></path> <path class="st3" d="M196.9,140.3c-0.3-0.8-0.7-1.3-1.9-3.8c0.2,0.3,0.4,0.7,0.6,1v0C195.7,137.8,196.2,138.9,196.9,140.3z"></path> <path class="st2" d="M206.4,143.6c0,9.4-1.4,19.4-5.4,28.9c1.4-9.3,0.8-20-3.3-30.2c-0.3-0.6-0.5-1.4-2.2-4.7v0 c-3.5-5.7,0-15.2,7.5-16.7C205.1,127.7,206.4,135.5,206.4,143.6z"></path> <path class="st3" d="M196,138.5c-0.3-0.4-0.5-0.7-1.1-2c0.2,0.3,0.4,0.7,0.6,1v0C195.7,137.8,195.8,138.2,196,138.5z"></path> <path class="st2" d="M189.9,186.3c0,3.5-0.5,6.8-1.3,9.9v0c-0.2,0.6-0.4,1.2-0.6,1.8c-0.2-2.5-0.7-4.9-1.4-7.2 c-1.3-4.4-3.5-8.3-6.2-11.2c0,0,0,0,0,0c-0.1-0.1-0.2-0.2-0.3-0.3c-0.5-0.6-0.9-1.2-1.1-1.9c0,0,0,0,0,0 c-0.2-0.7-0.4-1.4-0.4-2.1c0-0.8,0.1-1.5,0.4-2.2c0.9-2.3,3.1-4,5.8-4c0.2,0,0.5,0,0.7,0l0,0c1.7,3,3,6.6,3.7,10.4 c0.2,0.9,0.3,1.9,0.4,2.8C189.9,183.6,189.9,184.9,189.9,186.3z"></path> <path class="st2" d="M208.5,111.3"></path> <path class="st4" d="M208,182.7c-0.6,1-1.2,2.1-1.8,3.1C206.8,184.8,207.4,183.8,208,182.7z"></path> <path class="st2" d="M219.7,152c0.1-0.4-0.5,2.4-0.4,1.7c-2.1,8.9-5.8,18.9-10.5,27.5c-6,10.5-18.1,28.2-27.6,29.7 c10-11.6,17.6-23.6,21.7-33.8c8.4-20.6,10.5-44.2,5.4-66.2c0,0.1,0-0.1,0,0c-2-8.2,1.5-14.8,8.5-16.6 C222.7,112,223.9,133,219.7,152z"></path> </g> <path class="st2" d="M156.8,212.3c-1.1,1.5-2.5,3-4,4.3c-3.1,2.6-7.6,2.7-10.8,0.3c-0.4-0.3-0.9-0.6-1.3-1 c5.3-1.6,10.1-4.3,14.2-7.9c0.2,0.5,0.4,1,0.6,1.5C155.8,210.4,156.3,211.3,156.8,212.3z"></path> <path class="st2" d="M229.6,248.1c-0.2-0.7-0.5-1.5-0.8-2.1c-0.4-0.9-0.9-1.8-1.4-2.6c-0.2-0.3-0.3-0.6-0.5-0.8 c0.1-0.4,0.4-0.4,0.6-0.6c0,0,0,0,0,0c0.9-0.9,0.7-1.9,0.2-2.9c-1.1-2.1-2.4-4.2-4-6c-0.7-0.8-1.4-1.5-2.1-2.1 c-7.5-6.4-17.8-7.8-27-10.2c-2-0.5-4.1-1.1-6.1-1.8c-4.5-1.5-8.9-3.2-13.1-5.3c-9.2-4.5-10.8-9.6-12.3-12.3 c-9.4-19.1,6.9-56.7,14.7-62.9c-6.6-3.1-16.7-13-21.3-23c-1.9-3.8-3.5-7.8-4.7-11.9c-0.7-2.4-1.4-4.8-1.9-7.3 c-1-4.9-1.6-10-1.7-15.1c0-2.9-0.1-1.1,0.1-6.7c0.4-5.8,1.3-11.4,2.8-16.9c-4.7,2.9-9.5,6.9-11.7,9.5c-2.6,2.9-4.8,5.7-6.4,8.7 c-1,4.8-2.7,2.2-0.3,14.5c0.5,2.5,1.2,4.9,1.9,7.3c1.3,4.1,2.9,8.1,4.7,11.9c3.7,7.5,8.5,14.3,14.1,20.2c2,2.1,4.1,4,6.2,5.9 c1.8,1.5,3.7,3,5.6,4.4c0,0,0,0,0,0c0.1,0.1,1.3,0.8,1.3,0.8c-7.6,9.8-19.5,45.8-5.2,67.8c2.9,3.8,6.6,7.1,10.8,9.4 c4.4,2.4,9.2,4.1,14,5.6c6.2,2,12.5,3.2,18.8,4.8c3.8,0.9,7.6,2.2,11.1,3.8c1.1,0.5,2.2,1.2,3.1,1.9c2.1,1.6,4,3.7,5.8,5.6 c0.3,0.3,0.6,0.5,0.8,1c-0.3,0.2-0.6,0.4-0.9,0.5c-0.3,0.1-0.6,0.2-0.9,0.4c-0.3,0.1-0.6,0-0.8-0.4c-0.8-1.2-1.8-2.2-2.7-3.2 c-1.3-1.3-2.6-2.4-4-3.3c-0.6-0.4-1.2-0.7-1.8-1c-0.1-0.1-0.3-0.1-0.5-0.2c0,0-0.1,0-0.1,0.1c0,0,0,0.1,0,0.1 c0.1,0.1,0.3,0.3,0.4,0.4c0.3,0.3,0.5,0.5,0.8,0.7c0.7,0.6,1.3,1.2,2,1.8c0.1,0.1,0.2,0.2,0.3,0.3c0.2,0.2,0.2,0.4,0.2,0.7 c-0.1,1.1,0.1,2.2,0.3,3.3c0,0.1,0.1,0.3,0.1,0.4c0,0.1-0.1,0.2-0.1,0.2c-0.1,0-0.2,0-0.4,0c-0.6-0.2-1.3-0.4-1.9-0.5 c0,0-0.1,0-0.2,0.1c0,0.1,0,0.2,0.1,0.2c0.7,0.6,1.4,1.3,1.9,2.1c0.5,0.7,0.9,1.4,1.3,2.2c0,0.1,0,0.2,0,0.2c-0.1,0-0.1,0-0.2,0 c-0.8-0.5-1.5-1.1-2.3-1.6c-1.8-1.2-3.4-1.5-5.4-1.9c-1.8-0.4-6.8-0.4-7.2-0.3c-0.3,0.1-0.4,0-0.5-0.4c-0.1-0.4-0.7-2.9-1.5-4.1 c-0.2-0.4-0.8-0.2-0.8,0.2c-0.3,1.9-0.9,6.6-1.7,8.4c-4.2,0.2-11.5,1.2-13.4,1.5c-9,1.1-23.7,3.7-34.1,11.6 c-12.4,9.6-11.7,17.6-11.6,17.7c0.1,0,3.9-4.1,7.5-6.1c2.9-1.6,5.5-2,8.7-1.3c1.3,0.3,3.1,1.1,4,2.2c1.5,1.9,1.8,3.8,0.8,6.3 c-0.9,2.1-2.5,2.8-2.4,2.8c3.5,0.5,6.1-3,6.7-5.7c0.3,0.6,1.4,2.6,0.7,6.8c3-2.7,4.8-8.1,1.6-13c-1.8-2.7-5.4-4.6-8.6-5.5 c-1-0.3-2-0.5-3-0.7c-0.3-0.1,6.7-7.9,23.4-12c13.1-3.2,15.8-2.8,17.2-2.9c0,0,14.6-1.8,20.1,0.3c2.1,0.8,4.2,1.6,6.1,2.9 c0.1,0,0.1,0.1,0.2,0.1c0.1,0.1,0.2,0.2,0.1,0.4c-0.1,0.7-0.4,1.3-0.7,1.8c-0.4,0.7-0.8,1.4-1.3,2c-0.1,0.1-0.2,0.2-0.3,0.4 c0,0.1,0,0.2,0,0.2c0,0,0.1,0.1,0.1,0.1c0.5,0,1,0,1.4-0.2c1.2-0.3,2.3-0.9,3.4-1.5c0.9-0.5,1.7-1.2,2.5-2 c0.3-0.4,0.6-0.8,0.9-1.3C229.8,249.8,229.9,249,229.6,248.1z M219.2,239.9c0-0.4,0-0.6,0-0.9c0-0.1,0.1-0.2,0.2-0.1 c0.3,0.3,0.5,0.5,0.7,0.8c0.1,0.1,0.1,0.3,0.1,0.5c0,1,0,1,0.7,1.1c0.2,0,0.4,0,0.5,0.1c0.1,0,0.2,0.1,0.3,0.1 c0,0,0.1,0.1,0.1,0.2c0,0-0.1,0.1-0.1,0.1c-0.4-0.3-0.7,0.7-2.3-0.6C219.3,240.7,219.3,240.3,219.2,239.9z M228.3,249.8 c-0.2,0.4-0.5,0.7-0.8,0.9c-0.6,0.5-1.3,0.9-1.9,1.4c-0.3,0.2-0.6,0.4-0.9,0.5c-0.1,0.1-0.3,0.1-0.4,0.1c0.1-0.2,0.1-0.3,0.2-0.5 c0.1-0.4,0.3-0.8,0.3-1.2c0.1-0.6,0-1.2-0.3-1.6c-0.7-1.1-1.5-2.2-2.3-3.2c-0.8-0.9-1.6-1.8-2.4-2.6c-0.1-0.1-0.1-0.2-0.2-0.3 c0.1,0,0.2,0,0.3,0c0.8,0.3,1.6,0.6,2.4,0.9c0.5,0.2,0.9,0.3,1.4,0.4c0.1,0,0.2-0.1,0.3-0.1c0-0.1-0.1-0.3-0.1-0.4 c-0.1-0.2-0.2-0.4-0.3-0.6c-0.1-0.1,0-0.2,0.1-0.2c0.2-0.1,0.4,0,0.6,0.2c0.4,0.6,0.9,1.1,1.3,1.7c0.7,1,1.3,2.1,2,3.1 c0.1,0.1,0.2,0.3,0.2,0.4c0,0,0.1,0.1,0.1,0c0-0.1,0.1-0.1,0.1-0.2c0-0.2-0.1-0.4-0.1-0.6c-0.2-0.5-0.4-1-0.6-1.5 c-0.4-1-1-1.9-1.5-2.7c-0.1-0.2-0.3-0.4-0.4-0.6c0,0,0-0.1,0-0.1c0,0,0,0,0.1,0c0.1,0.1,0.1,0.1,0.2,0.2c0.9,1.2,1.8,2.5,2.5,3.9 c0.2,0.4,0.3,0.8,0.4,1.2c0.1,0.2,0.1,0.4,0.1,0.6C228.4,249.3,228.4,249.6,228.3,249.8z"></path> <path class="st2" d="M159.8,141.8c-0.7,1.1-1.1,1.8-1.1,1.8c-0.6,1.1-1.2,2.3-1.8,3.4c-4.9-1.8-9.6-4.1-14-6.7 c-1.7-1-3.4-2.1-5-3.3c-1.9-1.4-3.8-2.8-5.6-4.4c-2.2-1.9-4.3-3.8-6.2-5.9c-3.9-4.1-7.4-8.6-10.4-13.5c-2.3-3.8-3.2-8.3-2.2-12.6 c0.1-0.2,0.1-0.5,0.2-0.7c1.8-6.4,5.4-12.4,8.2-16.2c0.1-0.2,1.1-1.5,1.1-1.5s0.2,1.4,0.2,1.8c0.3,2,0.6,4,1,6 c0.5,2.5,1.1,4.9,1.9,7.3c1.3,4.1,2.9,8.1,4.7,11.9c2.4,4.8,5.2,9.3,8.4,13.4c1.8,2.4,3.7,4.6,5.8,6.8c2,2.1,4.1,4,6.2,5.9 c0.2,0.2,0.4,0.3,0.6,0.5c1.6,1.4,3.3,2.6,5,3.9C157.8,140.4,158.8,141.1,159.8,141.8z"></path> <path class="st2" d="M154.2,153.4c-0.5,1.2-0.9,2.5-1.3,3.7c-2.8-0.2-5.8-0.7-8.5-1.2c-12.8-2.5-24.2-7.8-34.3-15.6 c-4.2-3.3-6.3-8.7-5.6-14c0.6-4.3,1.5-8.6,2.7-12.7C117,132.3,134,146.9,154.2,153.4z"></path> <path class="st2" d="M151.3,162.8c-0.4,1.8-0.8,3.7-1.1,5.5c-13,2.2-27.5-0.1-39.3-6.1c-3.5-1.8-5.5-4.8-6.5-9.2 c-0.7-3.3-0.8-9.7-0.8-9.7c1.9,1.8,3.8,3.7,7,6c0.6,0.3,0,0.5,7.8,5.1C128,159.7,139.7,162.9,151.3,162.8z"></path> <path class="st2" d="M149.4,179.8c0,0.3,0,0.5,0,0.8c-9.3,3.5-20.7,4.4-31,2.4c-3.3-0.6-5.6-2.7-7.4-6c-1.3-2.3-2.8-7.4-2.8-7.4 c11.9,6.5,27.1,9.2,41.2,6.2C149.4,177.2,149.4,178.5,149.4,179.8z"></path> <path class="st3" d="M107,146.4c0.3,0.2,0.5,0.5,0.8,0.7c-0.1-0.1-0.3-0.2-0.4-0.3C107.3,146.7,107.1,146.5,107,146.4z"></path> <path class="st3" d="M104.2,143.9c0.3,0.3,0.6,0.6,0.9,0.9C104.9,144.5,104.5,144.2,104.2,143.9z"></path> <path class="st3" d="M106.7,146.2c0.1,0.1,0.2,0.2,0.3,0.3C106.9,146.3,106.8,146.2,106.7,146.2z"></path> <path class="st3" d="M111.4,149.9c0.7,0.5,1.5,1,2.3,1.6c-0.5-0.4-1.1-0.7-1.6-1.1C111.8,150.2,111.6,150.1,111.4,149.9z"></path> <path class="st3" d="M115.5,152.7c0.3,0.2,0.7,0.4,1,0.6c-0.1,0-0.2-0.1-0.2-0.1C115.9,153,115.7,152.8,115.5,152.7z"></path> <path class="st2" d="M150.3,191.6c-6.7,3.7-14.7,5.9-23,5.7c-3.1-0.1-6.1-2-7.8-4.3c-1.2-1.5-2-3.2-2-3.2 c10.4,1.9,21.7,1.1,32.2-3.1C149.8,188.4,150,190,150.3,191.6z"></path> <path class="st2" d="M154.7,236.3c0.1-0.1,0.1-0.1,0.2-0.2c-1.8,1.8-3.5,3.7-5.1,5.7l0,0c-1.7,2.1-4.1,5.9-5.5,8 c0.8-1.4,1.6-2.8,2.6-4.1c-9.2,13.3-14,29.9-12.8,46.5c-5.3,0.9-11.2-3.7-11.4-9.5c0.9-20.1,14.1-39.3,33.3-47.7 C155.5,235.4,155.1,235.8,154.7,236.3z"></path> <path class="st3" d="M134,292.2C134,292.2,134,292.2,134,292.2L134,292.2C134,292.2,134,292.2,134,292.2z"></path> <path class="st3" d="M141.8,235.5c2.4-0.6,4.8-1.1,7.3-1.4C146.7,234.6,144.2,234.9,141.8,235.5z"></path> <path class="st2" d="M151.2,233.9c-0.4,0.1-0.7,0.2-1.1,0.4c0,0,0,0,0,0c-15.1,5.2-28.1,18.2-33.1,33.8c-4.7-1-7.8-6.9-5-11.6 c6.7-10.1,17.4-17.8,29.8-21c0,0,0,0,0,0C144.2,235,147.8,234.2,151.2,233.9z"></path> <path class="st2" d="M168.3,266.5c0.3,0.4,0.6,0.8,0.9,1.2c0.2,0.3,0.4,0.6,0.6,1c0,0,0.6,1.2,0.8,1.7c0.2,0,1,0,2.1,0.3 c1.8,0.4,2.6,1.2,2.7,1.3c-0.1-1.5-0.6-2.7-1.9-4C171.6,266.3,169.1,266.4,168.3,266.5z"></path> </g> <path class="st2" d="M194.1,187.8c0-0.4,0-0.7,0-1.1c0-9.4-2.4-18-6.5-24.8v0c-0.9-1.4-1.4-3.1-1.4-4.9c0-3.9,2.5-7.2,6-8.5 c0.7-0.2,1.4-0.4,2.2-0.5c1.9,5.3,3.1,11.3,3.3,17.5c0,0.7,0,1.3,0,2C197.7,174.9,196.4,181.7,194.1,187.8z"></path> <g> <path class="st1" d="M276.5,167.8c0-29.9-0.4-60.5-1.1-90.4C239.5,66.7,201.2,62.1,163.6,65c34.7,2,69.6,8.2,102.8,19 C264.9,224.3,283,237,167,311c-6.7-3.7-13.3-7.3-20.3-11c6,4.4,14,10,20.3,14.4C240.5,276.1,279.4,249.6,276.5,167.8z"></path> <path class="st1" d="M89.5,71.9c-9.8,1.4-20.5,3.8-30.5,6.4C57.4,180.9,53.8,216,85.6,252.8c-15.8-29.3-17.9-49.6-18.4-82.2 c-0.4-26.1,0.4-85.9,0.4-85.9c15.7-5.6,33.6-10.8,49.9-15.2C108.6,69.6,98.9,70.5,89.5,71.9z"></path> </g> </g> </svg> 